# xmcd CD database file
#
# Track frame offsets:
#	183
#	18503
#	38350
#	60553
#	77543
#	95280
#	115563
#	133210
#	149073
#	171790
#
# Disc length: 2542 seconds
#
# Revision: 2
# Processed by: cddbd v1.5.2PL0 Copyright (c) Steve Scherf et al.
# Submitted via: CDex 1.51
#
DISCID=7a09ec0a
DTITLE=梁雁翎 - 像霧像雨又像風
DYEAR=1992
DGENRE=Pop
TTITLE0=像霧像雨又像風
TTITLE1=多少個夜晚
TTITLE2=打不開的鎖
TTITLE3=您怎麼說
TTITLE4=愛不像你這麼說
TTITLE5=恰似你的溫柔
TTITLE6=談情說愛
TTITLE7=美麗的心情
TTITLE8=兩個人一個夢一顆心
TTITLE9=情人玫瑰
EXTD=YEAR: 1992
EXTT0=
EXTT1=
EXTT2=
EXTT3=
EXTT4=
EXTT5=
EXTT6=
EXTT7=
EXTT8=
EXTT9=
PLAYORDER=
